<svg width="153" height="39" viewBox="0 0 153 39" fill="none" xmlns="http://www.w3.org/2000/svg">
<g clip-path="url(#clip0_629_22)">
<path d="M3.62731 29.7961H0V11.685H7.12779C8.14242 11.685 9.00486 11.8879 9.7151 12.2937C10.4144 12.6741 11.0074 13.2235 11.44 13.8918C11.8664 14.5627 12.1513 15.3137 12.277 16.0986C12.5828 17.6749 12.2742 19.3083 11.4146 20.6645C10.982 21.3328 10.3891 21.8821 9.68973 22.2625C8.90422 22.6874 8.02047 22.8974 7.12779 22.8713H3.62731V29.7961ZM3.62731 19.3454H6.8234C7.33072 19.3454 7.7112 19.2186 7.99023 18.9396C8.28013 18.666 8.48304 18.3131 8.57364 17.9249C8.67457 17.5254 8.67457 17.107 8.57364 16.7074C8.48304 16.3192 8.28013 15.9663 7.99023 15.6928C7.66997 15.409 7.25063 15.2631 6.8234 15.2869H3.62731V19.3454Z" fill="#F2F2F2"/>
<path d="M24.0242 30.0475C22.6145 30.076 21.2145 29.8081 19.9149 29.2612C18.8197 28.7844 17.8377 28.0814 17.0333 27.1983C16.229 26.3153 15.6204 25.2721 15.2476 24.1373C14.4624 21.9132 14.4624 19.4872 15.2476 17.2631C15.6422 16.1397 16.2588 15.1072 17.0606 14.2269C17.8624 13.3467 18.8331 12.6367 19.9149 12.1393C21.1071 11.6319 22.4515 11.3529 24.0242 11.3529C25.4258 11.3227 26.8179 11.5907 28.1081 12.1393C29.2351 12.6219 30.2404 13.3498 31.0505 14.27C31.825 15.143 32.4197 16.1601 32.8008 17.2631C33.5799 19.4883 33.5799 21.9121 32.8008 24.1373C32.4296 25.2768 31.8187 26.3236 31.0093 27.2074C30.1999 28.0912 29.2107 28.7915 28.1081 29.2612C26.8179 29.8097 25.4258 30.0777 24.0242 30.0475ZM24.0242 26.2934C25.0388 26.2934 25.952 26.0904 26.6876 25.6846C27.4486 25.2787 28.032 24.7461 28.4632 24.0865C29.3559 22.7343 29.6752 21.0829 29.351 19.4953C29.2051 18.7158 28.9031 17.9738 28.4632 17.3139C28.0181 16.6313 27.4072 16.0728 26.6876 15.6905C25.8655 15.2659 24.9492 15.0565 24.0242 15.0817C23.0992 15.0565 22.1829 15.2659 21.3608 15.6905C20.6412 16.0728 20.0303 16.6313 19.5852 17.3139C18.9392 18.3252 18.596 19.5002 18.596 20.7002C18.596 21.9002 18.9392 23.0752 19.5852 24.0865C20.0368 24.757 20.6466 25.3058 21.3608 25.6846C22.1829 26.1092 23.0992 26.3186 24.0242 26.2934Z" fill="#F2F2F2"/>
<path d="M36.7742 11.6596H40.4015V26.1688H46.1595V29.7961H36.7742V11.6596Z" fill="#F2F2F2"/>
<path d="M53.7175 29.7961V21.6284L47.4014 11.6596H51.815L55.5184 17.8996L59.2218 11.6596H63.6608L57.3194 21.6284V29.7961H53.7175Z" fill="#F2F2F2"/>
<path d="M74.0597 19.3454L81.2129 11.3806H82.3543V29.7961H78.6763L78.7017 19.6752L74.0597 24.5454L69.4178 19.6752V29.7961H65.7397V11.3806H66.9066L74.0597 19.3454Z" fill="#F2F2F2"/>
<path d="M106.428 29.7961L114.064 11.0001H114.444L122.079 29.7961H117.995L117.26 27.843H111.248L110.538 29.7961H106.428ZM112.567 24.444H115.915L114.266 19.7259L112.567 24.444Z" fill="#F2F2F2"/>
<path d="M130.016 11.6574C131.538 11.6574 132.832 11.9111 133.973 12.4184C135.021 12.9018 135.96 13.5911 136.736 14.4453C137.512 15.2994 138.108 16.3009 138.488 17.3901C139.063 18.9981 139.209 20.7283 138.911 22.4098C138.613 24.0914 137.881 25.6661 136.789 26.9784C136.014 27.8634 135.052 28.5652 133.973 29.033C132.723 29.5634 131.374 29.8227 130.016 29.794H124.613V11.6574H130.016ZM130.016 15.2848H128.24V26.1667H130.016C130.914 26.1935 131.804 25.9928 132.603 25.5833C133.3 25.2216 133.893 24.6892 134.328 24.036C134.764 23.3857 135.057 22.6511 135.191 21.8799C135.347 21.1196 135.351 20.336 135.203 19.5742C135.055 18.8124 134.757 18.0873 134.328 17.4409C133.899 16.776 133.305 16.2341 132.603 15.8682C131.804 15.4587 130.914 15.258 130.016 15.2848Z" fill="#F2F2F2"/>
<path d="M141.631 28.6211L142.087 24.8163C143.583 25.903 145.419 26.4161 147.262 26.2621C147.795 26.2368 148.276 26.0592 148.632 25.7041C149.012 25.349 149.19 24.9431 149.139 24.4358C149.138 24.2059 149.085 23.9792 148.984 23.7727C148.883 23.5663 148.736 23.3854 148.555 23.2436C148.163 22.9542 147.726 22.7314 147.262 22.5841C146.346 22.2432 145.456 21.8362 144.598 21.3665C143.825 20.9266 143.151 20.3306 142.62 19.6163C142.115 18.8685 141.858 17.9814 141.884 17.0797C141.884 16.0651 142.087 15.1265 142.518 14.3148C142.945 13.4874 143.587 12.7909 144.378 12.2996C145.169 11.8083 146.077 11.5405 147.008 11.5246C148.551 11.4371 150.094 11.6972 151.523 12.2856L151.067 15.7861C149.902 15.2671 148.638 15.0075 147.363 15.0251C146.729 15.0758 146.247 15.2787 145.943 15.6846C145.657 16.0814 145.522 16.567 145.562 17.0543C145.576 17.2863 145.642 17.512 145.757 17.7143C145.871 17.9165 146.03 18.0899 146.222 18.2212C146.651 18.4943 147.111 18.7157 147.592 18.8807C148.507 19.2038 149.384 19.6293 150.204 20.149C150.962 20.6041 151.611 21.2187 152.107 21.9499C152.609 22.6798 152.866 23.5502 152.842 24.4358C152.859 25.3902 152.632 26.3332 152.183 27.1753C151.737 27.98 151.079 28.6468 150.28 29.1031C149.393 29.6249 148.392 29.921 147.363 29.9655C146.226 30.0156 145.087 29.8872 143.99 29.5851C143.172 29.3454 142.382 29.0224 141.631 28.6211Z" fill="#F2F2F2"/>
<mask id="mask0_629_22" style="mask-type:luminance" maskUnits="userSpaceOnUse" x="84" y="10" width="21" height="21">
<path d="M84.3718 10.5154H104.249V30.0379H84.3718V10.5154Z" fill="white"/>
</mask>
<g mask="url(#mask0_629_22)">
<path d="M96.5822 10.5436L103.09 10.5653C103.394 10.5653 103.731 10.5805 103.947 10.7944C104.173 11.0168 104.183 11.3718 104.177 11.6903L104.15 13.2516C104.147 13.4618 104.138 13.6885 104.008 13.8551C103.847 14.0652 103.554 14.1116 103.29 14.1381C102.213 14.2431 101.133 14.2706 100.052 14.2214C99.8629 14.2119 99.6405 14.2152 99.5255 14.3657C99.4621 14.4481 99.4479 14.5546 99.4351 14.6592C99.1123 17.3123 98.7895 19.9825 98.9434 22.6504C98.9945 23.5297 99.1525 24.5084 99.8572 25.0356C100.572 25.5714 101.727 25.3598 102.206 24.605C102.412 24.2794 102.498 23.888 102.707 23.5638C102.917 23.24 103.336 22.9864 103.683 23.1549C104.05 23.3319 104.091 23.8316 104.057 24.2391C103.922 25.8341 103.358 27.4631 102.158 28.5222C100.958 29.5814 99.0342 29.9009 97.7318 28.9695C96.666 28.2085 96.2306 26.8412 96.0299 25.5468C95.47 21.9338 96.2192 18.2631 96.4227 14.6123C96.4274 14.5176 96.4298 14.4183 96.3754 14.3435C96.2997 14.2408 96.1529 14.2318 96.0266 14.2318L92.8907 14.2389C92.7804 14.2389 92.655 14.2455 92.5826 14.3279C92.5267 14.3899 92.5168 14.4793 92.5087 14.5635C92.2873 16.9564 92.0648 19.3493 91.8419 21.7431C91.6796 23.4928 91.512 25.2657 90.9115 26.9174C90.6038 27.7636 90.1571 28.6022 89.4154 29.1115C88.6734 29.6212 87.582 29.7054 86.9118 29.1039C86.2549 28.5142 86.201 27.4754 86.4939 26.6429C86.7869 25.8099 87.3558 25.1085 87.8186 24.356C89.5565 21.5263 89.7519 18.0501 89.9024 14.7358C89.9095 14.5815 89.9058 14.4022 89.7846 14.3066C89.7127 14.2498 89.6152 14.237 89.5233 14.2313C88.971 14.199 88.4191 14.3015 87.9152 14.5299C87.4099 14.7548 86.9668 15.0991 86.6241 15.5333C86.165 16.123 85.7372 16.9559 84.9903 16.9181C84.8067 16.9086 84.6165 16.8315 84.5138 16.6781C84.3723 16.4689 84.4276 16.1897 84.4958 15.9469C85.1158 13.7476 86.4319 11.2502 88.8343 10.7125C89.6933 10.5209 90.5816 10.5242 91.4614 10.5242L96.5822 10.5431V10.5436Z" fill="#F2F2F2"/>
</g>
</g>
<defs>
<clipPath id="clip0_629_22">
<rect width="152.876" height="39" fill="white"/>
</clipPath>
</defs>
</svg>
