<svg xmlns="http://www.w3.org/2000/svg" width="100%" height="100%" viewBox="0 0 105 17" fill="#F2F2F2" preserveAspectRatio="xMidYMid meet" aria-hidden="true" role="img">
<path d="M18.0871 16.1837L7.6852 6.21489L2.06244 11.6035C2.00687 11.6568 1.91593 11.6568 1.86036 11.6035L0.0416781 9.86058C-0.0138927 9.80732 -0.0138927 9.72017 0.0416781 9.66692L7.58416 2.43847C7.63973 2.38521 7.73067 2.38521 7.78624 2.43847L20.1129 14.2519C20.1684 14.3051 20.1684 14.3923 20.1129 14.4455L18.2942 16.1885C18.2386 16.2418 18.1477 16.2418 18.0921 16.1885L18.0871 16.1837Z" fill="#F2F2F2"></path>
<path d="M11.3048 16.1837L21.7066 6.21489L27.3294 11.6035C27.385 11.6568 27.4759 11.6568 27.5315 11.6035L29.3502 9.86058C29.4057 9.80732 29.4057 9.72017 29.3502 9.66692L21.8077 2.43847C21.7521 2.38521 21.6612 2.38521 21.6056 2.43847L9.27898 14.2519C9.22341 14.3051 9.22341 14.3923 9.27898 14.4455L11.0977 16.1885C11.1532 16.2418 11.2442 16.2418 11.2997 16.1885L11.3048 16.1837Z" fill="#F2F2F2"></path>
<path d="M24.7734 14.5601L14.6937 4.73137L4.61905 14.5601C4.56248 14.6153 4.46991 14.6153 4.41334 14.5601L2.56196 12.7539C2.50539 12.6987 2.50539 12.6084 2.56196 12.5532L14.5908 0.812937C14.6474 0.757748 14.7399 0.757748 14.7965 0.812937L26.8305 12.5532C26.8871 12.6084 26.8871 12.6987 26.8305 12.7539L24.9791 14.5601C24.9226 14.6153 24.83 14.6153 24.7734 14.5601Z" fill="#F2F2F2"></path>
<path d="M49.2529 9.90467C50.9998 9.12701 52.066 7.62929 52.066 5.93955C52.066 3.53936 50.0037 1.5856 47.4709 1.5856H41.8147C41.4493 1.5856 41.1489 1.87362 41.1489 2.22405V14.7771C41.1489 15.1275 41.4493 15.4155 41.8147 15.4155H43.6317C43.9921 15.4155 44.2974 15.1227 44.2974 14.7771V10.2215H46.0243L48.5771 15.0939C48.6572 15.2475 48.8524 15.4155 49.1478 15.4155H51.225C51.4803 15.4155 51.6906 15.3051 51.8107 15.1131C51.9308 14.9163 51.9358 14.6667 51.8157 14.4602L49.2529 9.90467ZM47.2507 7.63889H44.3174V4.41783H47.2507C48.1567 4.41783 48.9225 5.13309 48.9225 5.97795C48.9225 6.88043 48.1567 7.63889 47.2507 7.63889Z" fill="#F2F2F2"></path>
<path d="M67.115 14.544L60.7922 1.94082C60.7454 1.85557 60.5949 1.5856 60.1744 1.5856H59.972C59.702 1.5856 59.4788 1.71348 59.3542 1.95029L52.9743 14.5393C52.8705 14.743 52.8861 14.9656 53.0055 15.1361C53.1301 15.316 53.3429 15.4155 53.5921 15.4155H55.3778C55.7723 15.4155 56.0994 15.2119 56.2447 14.8803L57.1688 13.019H62.9153L63.8445 14.8898C63.9951 15.1645 64.2027 15.4155 64.7115 15.4155H66.492C66.7412 15.4155 66.9592 15.316 67.0786 15.1361C67.2032 14.9656 67.2136 14.743 67.115 14.544ZM58.4406 10.3998L60.0239 7.15546L61.6383 10.3998H58.4406Z" fill="#F2F2F2"></path>
<path d="M78.0364 2.46181L72.0507 15.0556C71.9285 15.2924 71.7233 15.4155 71.4692 15.4155H71.2738C71.0197 15.4155 70.8145 15.2924 70.6972 15.0603L64.7261 2.46181C64.6332 2.26289 64.643 2.04028 64.7554 1.86504C64.8727 1.6898 65.0779 1.5856 65.3124 1.5856H67.2816C67.5797 1.5856 67.7898 1.77505 67.868 1.9645L71.3813 9.55201L74.8994 1.95503C74.9727 1.77505 75.1828 1.5856 75.4858 1.5856H77.455C77.6895 1.5856 77.8899 1.6898 78.0071 1.86504C78.1195 2.04028 78.1293 2.26289 78.0364 2.46181Z" fill="#F2F2F2"></path>
<path d="M83.1625 4.41783V6.97163H88.1016C88.489 6.97163 88.8118 7.26446 88.8118 7.61009V9.18461C88.8118 9.53504 88.4944 9.82306 88.1016 9.82306H83.1625V12.5881H89.14C89.5328 12.5881 89.8556 12.8713 89.8556 13.2217V14.7771C89.8556 15.1275 89.5328 15.4155 89.14 15.4155H80.4939C80.0958 15.4155 79.7783 15.1275 79.7783 14.7771V2.22405C79.7783 1.87362 80.0958 1.5856 80.4939 1.5856H89.14C89.5328 1.5856 89.8556 1.87362 89.8556 2.22405V3.77938C89.8556 4.12981 89.5328 4.41783 89.14 4.41783H83.1625Z" fill="#F2F2F2"></path>
<path d="M104.972 2.3895V14.8173C104.972 15.1444 104.663 15.4155 104.293 15.4155H104.005C103.783 15.4155 103.609 15.3501 103.454 15.2099L95.5846 7.32976V14.6116C95.5846 14.9528 95.2811 15.2332 94.9056 15.2332H93.054C92.6836 15.2332 92.375 14.9481 92.375 14.6116V2.18853C92.375 1.86136 92.6836 1.5856 93.054 1.5856H93.3574C93.5837 1.5856 93.7586 1.65104 93.9129 1.79125L101.741 9.37223V2.3895C101.741 2.04831 102.045 1.76788 102.42 1.76788H104.293C104.663 1.76788 104.972 2.05299 104.972 2.3895Z" fill="#F2F2F2"></path>
</svg>