<svg width="300" height="300" version="1.1" xmlns="http://www.w3.org/2000/svg"><g transform="matrix(3.0211 0 0 3.2644 -2.1148 -27.095)" fill="#fff"><path d="m38 31v13s4-3 9-3c1 0 11 0 11 9v13c2 0 4 0 4 3s-2 3-4 3h-6c-2 0-5 0-5-3s3-3 5-3v-11c0-5-4-5-7-5s-7 2-7 5v11c2 0 5 0 5 3s-3 3-5 3h-6c-2 0-5 0-5-3s3-3 5-3v-26c-2 0-5 0-5-3s3-3 5-3z"/><path d="m84 59c7-8 7 11 3 11-6 0 0-8-12-8-7 0-10 3-10 10s3 8 10 8c10 0 12-6 15-4 5 5-7 10-14 10-13 0-17-4-17-14s6-16 16-16c5 0 7 1 9 3z"/><path d="m100 60h-13v-3c2-2 10-8 10-10s-2-3-4-3c-4 0-3 3-5 3-3 0-1-6 5-6 4 0 7 2 7 6 0 3-6 8-9 10h7c0-1 2-1 2 0"/><circle cx="85" cy="32" r="3"/><circle cx="76" cy="22" r="3.6"/><circle cx="64" cy="15" r="4"/><circle cx="48" cy="13" r="4.7"/><circle cx="30" cy="16" r="5.5"/><circle cx="14" cy="30" r="6.5"/><circle cx="8.5" cy="52" r="7.8"/><circle cx="13" cy="75" r="7.8"/><circle cx="31" cy="91" r="9.2"/></g></svg>
